<svg version="1.1" id="Layer_1" xmlns="http://www.w3.org/2000/svg" xmlns:xlink="http://www.w3.org/1999/xlink" x="0px" y="0px"
	 width="100%" viewBox="0 0 1070 862" enable-background="new 0 0 1070 862" xml:space="preserve">

<path fill="#0E4398" opacity="1.000000" stroke="none"
	d="
M697.946228,513.130981
	C671.154480,513.081116 644.362732,513.019287 617.570984,512.985229
	C595.768799,512.957581 573.966492,512.978394 552.164429,512.928223
	C550.203674,512.923706 548.243652,512.556885 546.030884,511.532471
	C545.573486,503.163940 545.367798,495.621246 545.168945,488.078339
	C545.165039,487.929962 545.241943,487.779449 545.281128,487.629944
	C545.303162,487.918091 545.325195,488.206238 545.282837,487.769836
	C543.827515,476.512299 543.294067,465.778931 540.888184,455.483093
	C533.005737,421.750214 515.222412,395.284271 483.175537,379.736115
	C464.238037,370.548187 444.313507,369.122070 423.949799,372.068237
	C414.498566,373.435638 405.241577,376.145935 395.896545,378.247498
	C394.937714,375.468384 393.680267,372.751953 393.080688,369.897369
	C391.733429,363.483032 390.712555,357.000153 389.504150,350.239258
	C387.816986,350.160675 386.188507,350.018768 384.560028,350.018463
	C274.564545,349.996979 164.569077,349.985840 54.573601,349.977722
	C45.234287,349.977051 39.147453,344.426361 39.008301,335.750183
	C38.850281,325.897705 44.903965,319.157745 54.436577,319.057190
	C68.934372,318.904266 83.434967,319.018066 97.934372,319.018158
	C142.265900,319.018402 186.597412,319.027954 230.928940,319.010712
	C240.127838,319.007141 246.091736,314.577057 248.028107,306.448944
	C250.016907,298.100769 245.095825,289.379272 236.923645,287.125183
	C234.407516,286.431183 231.727692,286.023468 229.120865,286.013947
	C207.455414,285.934662 185.789032,285.899780 164.123993,286.030365
	C156.668488,286.075348 149.202560,287.050232 141.766357,286.814178
	C135.690628,286.621307 129.620682,285.472961 125.941086,279.446228
	C123.006454,274.639618 123.003685,269.442871 125.058426,264.765656
	C127.414795,259.401825 131.850967,255.868301 138.299973,255.958038
	C142.965637,256.022949 147.634369,256.068695 152.298874,255.977097
	C166.916626,255.690048 181.532547,255.112839 196.150146,255.079788
	C206.431122,255.056549 211.747177,247.996170 211.741455,239.600922
	C211.735764,231.270584 206.322220,224.147827 195.975327,224.017151
	C184.477570,223.871933 172.972977,224.148819 161.478622,223.902603
	C154.728012,223.757996 149.279938,220.635208 146.370544,214.385284
	C143.810516,208.885849 144.598038,203.394836 148.261307,198.500839
	C151.340363,194.387329 155.491821,192.778259 160.692200,192.760330
	C172.476578,192.719742 184.270035,192.482941 196.038864,191.901886
	C202.272614,191.594101 209.070419,183.392853 209.870300,176.166580
	C210.613235,169.454498 204.722626,160.741135 198.081619,159.055603
	C195.551575,158.413483 192.883286,158.024612 190.276947,158.019058
	C159.945007,157.954498 129.612854,157.994858 99.280769,157.984818
	C90.835472,157.982010 84.874092,153.570984 83.173836,146.165176
	C81.548050,139.083679 85.752037,131.151398 93.078773,128.044601
	C94.972733,127.241493 97.240730,127.045326 99.338226,127.039444
	C123.162560,126.972694 146.987152,126.997086 171.319839,126.997086
	C171.549927,124.635002 171.948227,122.407570 171.955246,120.178894
	C172.010391,102.679779 172.713928,85.141579 171.776962,67.692795
	C170.950851,52.308361 185.166046,42.002007 197.999649,42.005142
	C268.163452,42.022282 338.327271,42.018784 408.491058,42.021797
	C427.490265,42.022614 446.489746,41.975262 465.488434,42.072113
	C468.262817,42.086254 469.735718,41.256092 471.267761,38.740936
	C482.507904,20.287928 498.450867,8.009966 519.637390,2.872052
	C520.195801,2.736629 520.645264,2.151678 521.072754,1.388185
	C531.020874,1.000000 541.041809,1.000000 551.531372,1.000000
	C553.119507,1.896206 554.104919,3.244004 555.378235,3.621935
	C580.719421,11.143126 597.012939,27.683413 604.362549,52.944679
	C605.818909,57.950436 606.215942,63.281345 606.897888,68.488960
	C607.294922,71.520958 605.195374,71.985435 602.738953,71.974007
	C594.075745,71.933678 585.412292,71.962303 576.748901,71.962830
	C562.440613,71.963699 548.132324,71.963066 532.990540,71.963066
	C532.990540,78.734589 533.208008,85.164413 532.939514,91.573883
	C532.539490,101.124153 529.626709,109.786209 522.166321,116.231544
	C514.387817,122.951691 505.440338,126.965050 494.925903,125.834389
	C492.307220,125.552780 489.838745,123.874641 486.534424,122.525261
	C486.534424,129.141495 486.534424,135.763657 486.534424,143.007706
	C487.603119,143.007706 489.548309,143.007248 491.493469,143.007782
	C513.318481,143.013763 535.143433,143.017639 556.968445,143.027100
	C565.212708,143.030685 572.368408,144.963791 576.206116,153.339859
	C576.758484,154.545517 578.314514,155.346451 579.504761,156.196518
	C603.032532,172.999176 629.180664,184.816986 655.518921,196.316818
	C668.675110,202.061066 681.617126,208.294846 694.673157,214.269882
	C697.038147,215.352203 699.486023,216.253510 701.437439,217.051086
	C706.379639,209.640427 710.692383,202.436859 715.723511,195.775970
	C727.908020,179.644653 744.519226,170.307266 764.035767,166.122543
	C770.283569,164.782913 776.800842,164.710220 783.190369,164.017258
	C786.959229,163.608505 788.016541,165.360245 788.059998,168.968338
	C788.199890,180.582443 788.618958,192.194107 789.013245,203.803894
	C789.254944,210.921188 789.793823,218.030579 789.927734,225.148636
	C790.034485,230.822510 787.829285,232.931198 782.131592,232.974915
	C773.468811,233.041382 764.804932,232.968536 756.141663,232.989059
	C754.376587,232.993240 752.611877,233.148697 749.909546,233.279953
	C752.716858,244.952744 755.119568,255.970139 758.040161,266.848511
	C762.514160,283.513367 766.540405,300.366882 772.279419,316.601990
	C776.846375,329.521454 783.764648,341.590637 796.417175,348.877808
	C798.399475,350.019501 800.770264,350.596069 802.532166,351.980286
	C804.289978,353.361359 805.508423,355.429016 806.663025,357.519226
	C801.721619,360.852325 797.457031,365.015411 792.375061,366.674042
	C768.904114,374.334442 749.885132,388.080109 734.664673,407.232941
	C731.975708,410.616669 730.464600,414.936371 728.243469,419.162720
	C726.937012,421.266479 725.651917,422.955322 724.678711,424.807983
	C713.826538,445.466766 705.659424,467.061981 701.919922,490.205231
	C700.682861,497.861298 699.275635,505.489838 697.946228,513.130981
M360.798889,96.732529
	C341.755707,90.555779 322.570923,90.314888 303.174011,95.035461
	C249.225632,108.164726 214.943878,160.941620 225.016083,215.517990
	C233.000580,258.782135 267.102905,291.621063 312.078583,299.355133
	C373.284698,309.880219 430.195709,265.397797 434.709717,203.504883
	C438.198151,155.673843 408.931488,113.036652 360.798889,96.732529
M707.010437,388.434143
	C706.025574,370.914764 705.732483,353.320587 703.849304,335.898285
	C702.172913,320.389526 699.139587,304.987000 695.956482,289.693390
	C693.042419,275.691986 690.379822,261.822540 693.009766,247.477982
	C694.590637,238.855209 695.833496,240.213638 686.313232,237.248077
	C661.931213,229.653122 637.436035,222.421097 612.978943,215.067688
	C599.093933,210.892960 585.173462,206.834137 571.316101,202.570084
	C567.589233,201.423264 566.453674,202.407516 565.893921,206.292419
	C563.641724,221.922043 560.997559,237.495453 558.467285,253.084641
	C556.674744,264.129028 554.831055,275.165161 553.013306,286.205475
	C552.254211,290.816193 553.650574,293.747955 558.328674,295.860870
	C578.942932,305.171356 599.363586,314.909576 619.881470,324.434723
	C640.544556,334.027283 661.220947,343.591888 681.930237,353.084167
	C689.816589,356.699005 693.016357,363.610321 689.669678,369.681885
	C681.139099,385.157990 672.705444,400.688385 664.347229,416.258362
	C653.800171,435.905701 643.374756,455.618286 632.877991,475.292633
	C630.208618,480.295990 627.467896,485.261230 624.588074,490.560028
	C652.755371,493.762482 679.891602,477.546600 692.984619,453.117920
	C703.659119,433.201904 705.897766,411.431183 707.010437,388.434143
M628.011230,412.500214
	C630.837708,406.004547 633.840454,399.576477 636.373047,392.968201
	C637.049866,391.202118 636.289734,388.885284 636.189331,386.821320
	C634.201233,386.999542 631.760620,386.497284 630.300110,387.468689
	C622.089050,392.929535 613.323975,397.908173 606.221252,404.612335
	C590.955933,419.021149 582.977112,436.829468 586.052979,458.329712
	C587.322754,467.205322 589.924255,475.637299 598.261169,481.040955
	C608.231140,458.224060 618.055908,435.739441 628.011230,412.500214
M447.767456,60.184334
	C443.019745,62.423813 440.636810,66.114464 441.493958,71.369072
	C442.250610,76.007622 445.450958,78.671066 449.896484,79.365189
	C454.482666,80.081276 458.481659,77.993645 459.873993,73.766861
	C460.835327,70.848450 460.618958,66.765625 459.254852,64.041367
	C457.253784,60.044868 452.972015,58.981861 447.767456,60.184334
M417.052032,78.681305
	C422.376953,75.300148 424.317078,71.316231 422.814026,66.849579
	C421.053467,61.617737 415.753510,58.713043 410.566589,60.137222
	C405.348663,61.569923 402.062408,67.078667 403.423798,72.110710
	C404.893494,77.542923 410.158875,80.329552 417.052032,78.681305
z"/>
<path fill="#0C4097" opacity="1.000000" stroke="none"
	d="
M844.449951,863.000000
	C844.000000,846.894043 844.000000,830.788086 844.000000,813.763611
	C847.633179,814.155701 850.634949,814.479675 853.636719,814.803650
	C853.582886,815.287354 853.529053,815.770996 853.475220,816.254700
	C863.699585,811.028320 869.802063,811.874512 876.992554,819.515625
	C881.665039,824.480896 882.657349,834.375122 879.080688,840.335327
	C873.835327,849.076294 867.374023,850.715576 852.978821,846.669678
	C852.978821,851.896057 852.978821,856.980774 852.989380,862.532715
	C850.299988,863.000000 847.599976,863.000000 844.449951,863.000000
M871.156555,836.518433
	C873.475098,830.472900 872.588135,825.307312 868.829346,822.964478
	C863.455078,819.614746 857.581604,820.525757 854.394592,825.203308
	C851.914795,828.843140 852.743103,836.308289 855.915527,838.909424
	C860.172241,842.399719 866.799744,841.672058 871.156555,836.518433
z"/>
<path fill="#0C3F96" opacity="1.000000" stroke="none"
	d="
M428.458069,863.000000
	C429.072754,859.795166 428.866302,856.473633 432.763702,854.063049
	C435.425385,852.416748 437.522064,848.182190 435.405396,843.632568
	C431.522949,835.287659 428.174103,826.694458 424.608185,818.202515
	C424.114777,817.027405 423.652191,815.839478 423.022339,814.278259
	C426.258331,814.278259 429.025238,814.278259 432.384064,814.278259
	C435.151306,821.037109 438.050690,828.118591 441.293701,836.039429
	C443.574646,830.487976 445.516602,825.765320 447.455750,821.041443
	C450.552704,813.497192 450.551880,813.496826 459.826630,814.374023
	C452.731598,830.509460 445.746002,846.395996 438.880188,862.641235
	C435.638702,863.000000 432.277435,863.000000 428.458069,863.000000
z"/>
<path fill="#FDBE03" opacity="1.000000" stroke="none"
	d="
M395.739441,378.558411
	C405.241577,376.145935 414.498566,373.435638 423.949799,372.068237
	C444.313507,369.122070 464.238037,370.548187 483.175537,379.736115
	C515.222412,395.284271 533.005737,421.750214 540.888184,455.483093
	C543.294067,465.778931 543.827515,476.512299 545.285400,487.772644
	C544.922363,495.983032 544.492554,503.466095 544.062744,510.949097
	C541.299316,511.311890 538.535889,511.674683 534.911011,512.053162
	C519.047424,512.169922 504.045288,512.270996 488.598083,512.201172
	C449.228607,512.006897 410.304199,511.981415 371.379822,511.974945
	C370.566589,511.974792 369.753296,512.193909 368.500000,512.146973
	C364.270874,511.954468 360.480988,511.862793 356.692810,511.908630
	C345.497589,512.044128 334.302979,512.233887 323.108154,512.402466
	C321.635590,512.254028 320.163116,511.976562 318.690491,511.975983
	C282.861420,511.962982 247.032379,511.981689 211.203323,511.989197
	C201.711060,511.991211 194.398773,505.528687 194.011353,496.816071
	C193.613144,487.860809 201.942810,479.155426 211.296249,479.043488
	C222.459976,478.909821 233.626541,479.016754 244.791885,479.016724
	C300.285309,479.016541 355.778778,479.052094 411.272064,478.977814
	C420.254608,478.965790 425.861633,473.994354 427.735596,465.233521
	C428.881165,459.878143 426.166138,452.473785 417.761169,448.979523
	C416.023193,448.256958 413.967621,448.032257 412.057648,448.029083
	C378.061768,447.972168 344.065765,448.014435 310.069855,447.964355
	C300.260742,447.949921 293.923370,443.091370 292.084839,433.002228
	C290.852844,426.241608 299.033630,417.095581 306.365723,417.025574
	C316.363586,416.930115 326.367615,416.828094 336.359802,417.085388
	C340.673523,417.196503 343.901489,415.945404 346.815277,412.766571
	C358.795990,399.695892 372.859100,389.374573 388.833832,381.680359
	C391.026062,380.624451 393.330078,379.800659 395.739441,378.558411
z"/>
<path fill="#FDBF04" opacity="1.000000" stroke="none"
	d="
M698.172791,513.404663
	C699.275635,505.489838 700.682861,497.861298 701.919922,490.205231
	C705.659424,467.061981 713.826538,445.466766 724.678711,424.807983
	C725.651917,422.955322 726.937012,421.266479 728.502686,419.040344
	C740.153992,402.913300 752.820190,388.526062 770.311218,379.843872
	C782.146118,373.969330 794.845825,369.836975 807.158752,364.925415
	C814.330933,364.272675 821.491699,363.386200 828.678650,363.037415
	C835.011902,362.730072 841.476135,362.319244 847.699890,363.218262
	C856.812012,364.534454 865.784241,366.879822 874.774536,368.965454
	C889.543823,372.391663 902.476990,379.893463 914.653992,388.440430
	C929.568359,398.908722 941.786926,412.093933 949.376404,428.949921
	C952.072021,434.936829 953.987427,441.275055 956.449158,447.970184
	C947.087830,447.970184 938.455505,447.970184 928.992188,447.726257
	C908.932739,447.349609 889.704407,447.208008 870.475708,447.116241
	C869.692200,447.112518 868.906433,447.578400 868.121704,447.825500
	C848.858276,447.882751 829.588501,447.671600 810.334290,448.123138
	C802.079468,448.316711 794.288818,451.039734 787.139160,456.646210
	C783.459412,458.989899 779.636841,460.586670 777.424988,463.434509
	C769.633362,473.466522 762.164124,483.771332 755.024902,494.279968
	C750.060913,501.586700 745.578125,509.184906 737.203491,513.148499
	C734.104370,514.615234 730.848267,515.750305 727.663757,517.036621
	C720.418030,517.021118 713.167847,516.849792 705.928711,517.061035
	C702.695557,517.155273 700.161316,516.480408 698.172791,513.404663
z"/>
<path fill="#0E4297" opacity="1.000000" stroke="none"
	d="
M727.785400,517.433838
	C730.848267,515.750305 734.104370,514.615234 737.203491,513.148499
	C745.578125,509.184906 750.060913,501.586700 755.024902,494.279968
	C762.164124,483.771332 769.633362,473.466522 777.424988,463.434509
	C779.636841,460.586670 783.459412,458.989899 786.920044,456.912354
	C780.603455,465.480225 775.273254,474.520538 772.729858,485.276215
	C766.973389,509.619293 776.101624,534.546936 796.596558,548.866089
	C819.748779,565.041809 850.875732,563.506226 872.283142,545.286316
	C888.776489,531.248901 895.606750,513.096375 893.791992,492.023834
	C892.608093,478.276337 886.868164,465.970673 876.692932,456.136566
	C875.138306,454.634155 873.654663,453.058380 872.350342,450.939026
	C890.300171,450.210632 908.037720,450.059753 925.775330,449.908875
	C927.856079,453.530396 930.358704,456.977295 931.942810,460.804382
	C937.987793,475.409210 940.167053,490.820435 938.846802,506.425415
	C937.074890,527.368896 929.883484,546.417236 916.533997,563.008667
	C902.545349,580.394470 885.040771,592.623596 863.757568,599.043030
	C828.078857,609.804199 795.155640,603.503418 765.723145,580.940552
	C747.349976,566.855835 735.895325,547.702881 729.357056,525.597717
	C728.614014,523.085632 728.378052,520.423584 727.785400,517.433838
z"/>
<path fill="#0E4297" opacity="1.000000" stroke="none"
	d="
M323.103424,512.793701
	C334.302979,512.233887 345.497589,512.044128 356.692810,511.908630
	C360.480988,511.862793 364.270874,511.954468 368.489960,512.523804
	C372.531189,528.108582 380.637787,540.267151 393.300812,549.006104
	C407.356720,558.706299 423.004150,561.991638 439.973511,559.067017
	C463.497345,555.012756 484.134094,535.508484 489.043182,512.372070
	C504.045288,512.270996 519.047424,512.169922 534.493469,512.215210
	C530.613464,538.650208 518.315186,560.598877 498.315430,578.040283
	C482.127319,592.157654 463.169159,600.278564 441.762939,603.089905
	C420.952667,605.822937 401.077393,602.521118 382.505493,593.497437
	C360.878540,582.989502 343.644135,567.176331 333.685913,544.889709
	C329.162262,534.765869 326.568085,523.779846 323.103424,512.793701
z"/>
<path fill="#0D4197" opacity="1.000000" stroke="none"
	d="
M125.821671,708.371948
	C120.579353,709.599731 115.494110,711.389404 110.289024,712.704956
	C104.485443,714.171692 98.588966,711.288452 96.134270,706.230713
	C93.738731,701.294861 95.030365,696.084167 100.317459,692.416687
	C102.457527,690.932129 105.480850,690.320740 108.167923,690.095520
	C118.793861,689.204712 127.148689,679.462830 125.919434,668.429077
	C124.748024,657.914673 115.575668,649.114380 104.504051,650.880798
	C93.921234,652.569214 87.009445,660.296021 86.975723,671.343445
	C86.912140,692.167419 86.975281,712.991760 86.962296,733.815918
	C86.957649,741.268555 83.374191,744.931824 76.134949,744.986755
	C68.657021,745.043518 65.013977,741.342834 65.009712,733.612183
	C64.997574,711.621826 64.993263,689.631409 65.008888,667.641052
	C65.020683,651.036926 75.867798,636.310852 91.508606,630.676331
	C108.128983,624.688843 122.896652,628.109375 135.675537,639.443359
	C143.416870,646.309387 147.857498,655.563477 147.934952,666.183594
	C148.112305,690.505005 147.984314,714.828491 147.999573,739.151184
	C148.007736,752.177063 150.719025,755.437256 163.647110,758.096741
	C168.269180,759.047485 172.026505,764.265015 171.966156,769.648682
	C171.912308,774.453918 168.160461,779.310303 163.552597,779.881958
	C145.995575,782.059998 126.141029,767.088745 126.031212,748.706055
	C125.951599,735.379211 125.957878,722.051758 125.821671,708.371948
z"/>
<path fill="#0D4297" opacity="1.000000" stroke="none"
	d="
M217.262482,744.971008
	C210.397736,743.724670 207.078430,739.923340 207.028397,733.341614
	C206.944824,722.343384 207.000443,711.343994 207.006958,700.345093
	C207.012085,691.676880 202.322769,685.809998 194.816895,686.087097
	C186.222549,686.404358 181.479797,690.932007 181.125198,700.376587
	C180.700348,711.692993 181.037033,723.037354 181.006317,734.369507
	C180.987411,741.341980 177.486008,744.940979 170.777588,744.986389
	C163.518951,745.035522 159.103210,741.263062 159.045792,734.555420
	C158.931686,721.224426 158.571152,707.873352 159.127472,694.564636
	C159.755417,679.542908 175.237701,664.569214 190.038086,663.954163
	C199.010147,663.581299 207.504181,664.527649 215.134354,669.887939
	C216.155945,670.605713 218.618118,670.286072 219.852524,669.530701
	C232.031342,662.077454 244.471054,661.668152 257.053192,668.098999
	C268.852631,674.129700 274.749390,684.101501 274.917542,697.263428
	C275.106995,712.092896 274.957001,726.926514 274.980255,741.758362
	C274.995697,751.598816 279.305084,756.549927 289.076599,758.035522
	C294.408752,758.846130 299.574738,764.496399 298.831787,769.413452
	C297.749298,776.577820 293.316956,780.065430 287.418365,780.139526
	C269.987976,780.358337 251.724060,764.832947 252.864090,746.144836
	C253.694595,732.530396 253.092255,718.823486 252.966888,705.159241
	C252.933762,701.548462 252.529510,697.902161 251.889908,694.345154
	C250.999420,689.392761 244.295151,685.304199 238.738113,686.020325
	C233.079926,686.749512 230.022446,690.220642 230.001938,696.119446
	C229.959641,708.284790 229.984573,720.450317 229.967987,732.615784
	C229.955994,741.398315 226.475082,744.888855 217.262482,744.971008
z"/>
<path fill="#0D4197" opacity="1.000000" stroke="none"
	d="
M928.228699,728.183960
	C920.333862,738.379211 910.452148,744.206238 897.780396,744.980835
	C889.022766,745.516113 880.580994,744.670227 872.875549,739.954956
	C861.115173,732.758301 854.312561,722.378967 853.085327,708.630859
	C851.512756,691.014404 858.904114,677.886719 873.799011,668.765198
	C881.180847,664.244507 889.347717,663.245117 897.725220,664.177979
	C902.377258,664.696045 906.357605,670.738037 905.965759,675.721436
	C905.522278,681.359985 900.644104,685.727661 894.510803,685.977600
	C884.579712,686.382446 878.875610,690.492798 875.995422,699.319641
	C873.389160,707.306824 876.242676,715.193054 883.459167,719.947754
	C890.469971,724.566711 899.830200,723.918884 906.020630,718.531494
	C911.008362,714.190979 912.991028,708.624146 912.999512,702.220581
	C913.025513,682.555237 913.004883,662.889832 913.004883,643.224487
	C913.004883,635.076782 917.285583,630.784180 925.187012,630.999634
	C931.998352,631.185425 935.110840,635.479187 935.077637,643.404907
	C935.043640,651.519226 935.950928,659.638123 935.901001,667.751587
	C935.812317,682.178406 935.882080,696.649536 934.704224,711.005188
	C934.231079,716.771851 930.639832,722.282593 928.228699,728.183960
z"/>
<path fill="#0D4297" opacity="1.000000" stroke="none"
	d="
M1025.682617,744.757812
	C1010.377808,741.033264 998.333313,727.269897 998.957214,710.609009
	C999.386841,699.134216 999.046143,687.630737 999.060486,676.140076
	C999.070496,668.057068 1002.764832,663.997681 1010.067993,664.016296
	C1016.917969,664.033752 1020.976013,668.654236 1020.979126,676.473389
	C1020.983521,687.464478 1020.942505,698.455627 1020.975708,709.446655
	C1020.998657,717.032715 1026.440796,723.071960 1033.109863,723.026245
	C1040.540283,722.975403 1045.880005,717.539429 1045.975464,709.514221
	C1046.114258,697.858643 1045.995728,686.200134 1046.023926,674.542969
	C1046.039551,668.033508 1049.640381,664.248413 1055.949463,664.003540
	C1062.373779,663.754211 1067.351074,667.572327 1067.432861,673.705017
	C1067.760498,698.288269 1068.512329,722.897888 1067.728027,747.453735
	C1067.099609,767.136597 1049.676270,780.434814 1032.528687,780.011475
	C1024.921875,779.823669 1021.216064,776.515015 1021.058044,769.423035
	C1020.915833,763.039307 1025.389648,758.435181 1032.162231,758.002502
	C1040.359131,757.478699 1046.055420,752.212402 1045.386719,744.881409
	C1038.925415,744.881409 1032.513794,744.881409 1025.682617,744.757812
z"/>
<path fill="#0D4198" opacity="1.000000" stroke="none"
	d="
M437.758881,772.243286
	C429.555664,766.086609 425.420227,757.900696 425.147003,748.296204
	C424.687683,732.150208 425.052246,715.981750 424.990570,699.822998
	C424.964752,693.056824 421.835602,688.596558 415.907654,686.453186
	C411.735352,684.944702 405.860046,686.581482 402.702881,690.986694
	C401.101105,693.221680 400.147186,696.394165 400.078339,699.171997
	C399.793762,710.659485 399.985199,722.158142 399.949890,733.652588
	C399.928650,740.555054 395.634613,744.904602 388.892731,744.976257
	C381.756683,745.052124 377.134521,740.933777 377.049713,733.913452
	C376.896759,721.254639 376.524414,708.570251 377.117828,695.937683
	C377.905670,679.166260 393.685333,663.555786 410.690308,663.843872
	C426.329803,664.108887 437.869476,670.345520 444.493347,684.420227
	C446.666595,689.038147 447.667267,694.560547 447.819183,699.710144
	C448.251343,714.357056 447.976624,729.024963 447.966064,743.684631
	C447.960022,752.101685 452.288940,757.066345 460.507843,758.024536
	C467.936798,758.890686 471.436707,763.192993 470.996033,770.917297
	C470.686615,776.340881 466.108643,780.021423 459.540588,779.964478
	C451.545197,779.895203 444.248505,777.707031 437.758881,772.243286
z"/>
<path fill="#0D4197" opacity="1.000000" stroke="none"
	d="
M843.954956,715.000366
	C843.954346,724.998474 843.939758,734.496643 843.955261,743.994873
	C843.968445,752.058411 848.397400,757.063232 856.324524,758.025696
	C862.789001,758.810608 867.519287,763.760864 866.908691,769.469116
	C866.113586,776.903198 860.675171,780.180115 854.992920,780.098999
	C836.417847,779.833435 821.012695,764.631653 821.022400,745.950500
	C821.030396,730.620117 821.097412,715.289307 821.011353,699.959412
	C820.950012,689.025635 811.894531,683.174805 802.506287,687.834106
	C797.525146,690.306152 796.088440,694.811707 796.017578,699.779297
	C795.851318,711.441467 795.985840,723.107544 795.951965,734.771973
	C795.931824,741.708801 792.334229,744.977966 784.856445,744.976379
	C777.763672,744.974792 774.073792,741.635132 774.044067,734.988525
	C773.988831,722.657776 774.549011,710.298157 773.885132,698.002808
	C773.080627,683.103455 785.058044,666.558167 802.118774,664.211853
	C821.714966,661.516846 836.950623,670.723694 842.313660,689.293884
	C844.595520,697.195007 843.509521,706.068726 843.954956,715.000366
z"/>
<path fill="#0D4297" opacity="1.000000" stroke="none"
	d="
M632.787781,690.701965
	C626.262268,696.945740 624.459656,704.055847 627.643005,712.116211
	C630.786987,720.076660 637.325134,722.885071 645.411621,723.049377
	C651.955383,723.182312 656.026306,727.765808 655.965088,734.821655
	C655.906372,741.590515 652.340515,744.437134 645.362549,745.104919
	C624.891479,747.063904 608.782654,730.837524 604.803406,716.060852
	C600.508667,700.112671 606.650757,682.105713 619.774292,671.967712
	C638.333740,657.630432 669.264465,662.216980 681.581726,685.648560
	C684.174316,690.580566 685.433777,696.610718 685.794800,702.231995
	C686.455383,712.517395 686.011047,722.875366 685.982178,733.202942
	C685.960449,740.943665 682.257324,744.951660 675.204773,744.976990
	C667.440552,745.004822 663.133118,740.921021 663.056885,733.206787
	C662.959717,723.379761 663.249329,713.543518 662.928894,703.725769
	C662.691650,696.454468 659.433228,690.807495 652.406799,687.710754
	C645.327698,684.590881 638.967285,685.747070 632.787781,690.701965
z"/>
<path fill="#0D4297" opacity="1.000000" stroke="none"
	d="
M309.198700,696.657715
	C305.416260,709.379333 309.894440,719.119934 320.860565,722.353943
	C322.873962,722.947754 325.090363,722.897217 327.220001,723.044434
	C333.525818,723.480530 338.205658,728.660278 337.957764,734.989197
	C337.712067,741.262024 333.611450,744.549866 326.945557,745.054138
	C306.448364,746.604797 291.818329,733.320862 286.868408,717.692871
	C279.401611,694.118652 293.836426,668.396179 317.938293,664.346313
	C342.170776,660.274597 360.994141,673.625183 366.546021,695.669312
	C367.968872,701.318787 366.952820,707.592163 366.986389,713.579346
	C367.027832,720.969666 367.254608,728.372375 366.916229,735.747437
	C366.622284,742.154785 362.444672,745.240540 355.410431,745.006592
	C349.414825,744.807312 345.130615,740.714172 345.053406,734.734558
	C344.930908,725.244141 345.021881,715.751038 345.019684,706.259033
	C345.017242,695.604370 340.695099,689.463684 331.171570,686.577759
	C323.401947,684.223267 315.371307,687.610596 309.974365,695.512512
	C309.787445,695.786194 309.549500,696.025024 309.198700,696.657715
z"/>
<path fill="#0E4297" opacity="1.000000" stroke="none"
	d="
M758.815552,730.007019
	C747.671143,746.612183 727.524353,748.570801 713.529175,741.656006
	C701.069519,735.499695 695.709229,724.288391 695.125061,710.936523
	C694.615601,699.293396 694.606873,687.585449 695.281982,675.958679
	C695.493164,672.321228 697.837280,667.863586 700.657776,665.560181
	C704.195007,662.671448 709.243164,663.216309 713.155212,666.190857
	C714.754333,667.406738 716.649170,669.470520 716.735657,671.230896
	C717.171692,680.103821 716.871033,689.010681 717.198364,697.892090
	C717.415344,703.780579 717.559326,709.824463 719.009338,715.471924
	C720.466675,721.148071 726.545898,724.008606 731.913086,722.907654
	C737.505737,721.760498 741.958984,716.615784 741.988220,711.041260
	C742.050232,699.209229 741.975891,687.376465 742.053955,675.544617
	C742.088013,670.389893 745.365173,665.609863 749.495605,664.286499
	C754.269897,662.756775 759.557678,664.690674 762.832153,669.946289
	C762.475342,672.808105 762.040710,674.929077 762.027405,677.052673
	C761.958740,687.993835 762.363525,698.952942 761.849365,709.870239
	C761.583008,715.523682 759.714478,721.096069 758.669617,726.723572
	C758.474731,727.772827 758.754700,728.910278 758.815552,730.007019
z"/>
<path fill="#0D4298" opacity="1.000000" stroke="none"
	d="
M55.000000,223.970856
	C43.182320,223.972977 31.864580,223.998428 20.546984,223.969299
	C12.348720,223.948196 6.119982,219.115616 4.276058,211.437820
	C2.796816,205.278503 6.628795,197.447830 12.996243,194.069244
	C14.378688,193.335724 16.137175,193.027451 17.726702,193.013687
	C27.949266,192.925217 38.173012,192.973541 48.396370,192.976303
	C64.707130,192.980728 81.029716,193.359528 97.324150,192.845688
	C106.826340,192.546051 112.825447,200.704437 112.933990,208.448776
	C113.050293,216.747009 105.995598,223.857971 97.441597,223.930893
	C83.461967,224.050079 69.480621,223.967987 55.000000,223.970856
z"/>
<path fill="#0E4298" opacity="1.000000" stroke="none"
	d="
M553.223450,133.358337
	C537.460144,137.458908 522.260437,137.191666 506.079132,131.366776
	C510.813782,129.256790 514.615295,127.903816 518.082886,125.956139
	C530.659058,118.892197 538.077026,108.528061 538.034668,93.616570
	C538.022888,89.451698 538.133301,85.284653 538.030457,81.122490
	C537.957581,78.173973 539.123291,76.926628 542.151428,76.940331
	C559.310608,77.017975 576.471191,77.083275 593.629333,76.929367
	C598.355286,76.886978 598.349548,79.787216 597.924622,82.867859
	C596.379089,94.073952 591.778625,104.098953 584.633362,112.709663
	C576.432983,122.591934 565.992310,129.475677 553.223450,133.358337
z"/>
<path fill="#0E4297" opacity="1.000000" stroke="none"
	d="
M837.269775,468.665833
	C849.619751,470.438324 857.773987,477.106964 861.835144,488.220245
	C866.071228,499.812012 864.061401,510.551514 855.602661,519.876770
	C841.691650,535.212830 817.282837,533.236389 805.769531,515.361389
	C793.564575,496.412476 804.939636,473.736664 826.131226,469.113495
	C829.594604,468.357910 833.290222,468.666687 837.269775,468.665833
z"/>
<path fill="#0D4297" opacity="1.000000" stroke="none"
	d="
M562.978027,641.556519
	C562.985474,664.308899 562.971802,686.617981 562.990784,708.927063
	C562.998657,718.194946 567.740051,722.838074 576.993347,723.067566
	C580.752380,723.160767 584.710510,723.118835 588.200562,724.276611
	C593.179443,725.928406 596.030151,731.835388 594.842407,736.711182
	C593.839417,740.828308 590.709717,745.675598 583.718872,745.024475
	C576.986938,744.397583 569.915161,745.228210 563.535522,743.459961
	C549.614136,739.601562 540.116089,725.945801 540.061707,711.432800
	C539.978088,689.124023 540.029541,666.814697 540.022888,644.505615
	C540.020630,637.048767 543.500854,631.653809 548.889465,631.033813
	C554.938477,630.337952 561.389893,632.791748 562.978027,641.556519
z"/>
<path fill="#0D4197" opacity="1.000000" stroke="none"
	d="
M966.967102,728.893250
	C966.527039,732.793640 966.721313,736.461792 965.495605,739.569824
	C963.715271,744.084045 956.923950,746.228149 951.162964,744.909058
	C946.827271,743.916260 944.049744,739.837097 944.036804,734.316711
	C944.007141,721.660645 943.915955,709.003662 944.022949,696.348511
	C944.179321,677.843872 962.789551,661.669739 981.047485,664.037415
	C986.332214,664.722778 989.869507,668.973083 989.956238,674.742126
	C990.046936,680.774841 986.536072,685.256226 980.987549,685.948181
	C969.707153,687.355042 966.419495,691.145874 966.886230,701.935913
	C967.267212,710.745544 966.965698,719.584595 966.967102,728.893250
z"/>
<path fill="#0C4198" opacity="1.000000" stroke="none"
	d="
M479.928833,735.357178
	C476.729462,744.883057 469.298615,748.199585 461.814606,742.976379
	C459.256805,741.191284 457.283173,736.776733 457.211853,733.516174
	C456.793274,714.377563 457.014465,695.224792 457.024567,676.076843
	C457.028320,668.928650 461.045532,664.241760 467.336060,664.028381
	C474.916138,663.771179 479.481537,667.755859 479.911041,675.483704
	C480.206299,680.795654 479.984100,686.136780 479.982178,691.464844
	C479.976990,705.950684 479.965973,720.436523 479.928833,735.357178
z"/>
<path fill="#FDBE06" opacity="1.000000" stroke="none"
	d="
M228.257614,416.997955
	C236.547058,416.998871 244.367447,416.991455 252.187805,417.001862
	C260.810669,417.013306 267.944611,423.817474 267.999481,432.064697
	C268.056519,440.636047 260.834778,448.053314 252.139008,447.945160
	C242.738861,447.828247 233.327927,447.586304 223.950043,446.968567
	C215.477478,446.410492 211.534714,436.962036 212.108856,431.435791
	C213.004883,422.811432 219.489441,417.095154 228.257614,416.997955
z"/>
<path fill="#0D4096" opacity="1.000000" stroke="none"
	d="
M833.989380,837.958252
	C833.991882,840.278076 833.868042,842.120300 834.022583,843.938965
	C834.320496,847.444824 833.174805,849.120850 829.303894,849.095459
	C825.530945,849.070740 824.882446,847.219177 824.960327,844.079651
	C825.088196,838.921143 825.039246,833.756287 824.969543,828.595459
	C824.916199,824.648499 823.973572,821.203796 819.107178,821.005249
	C814.438171,820.814758 812.062073,823.330383 812.004272,828.526367
	C811.930664,835.137817 811.986389,841.750732 811.986389,848.658447
	C808.779785,848.658447 806.213196,848.658447 802.995117,848.658447
	C802.995117,842.029419 803.021362,835.587280 802.987183,829.145386
	C802.957947,823.627441 800.839050,821.016357 796.489563,821.010254
	C792.807251,821.005005 790.165649,824.065735 790.035156,828.885376
	C789.895508,834.043274 789.872620,839.212830 790.057068,844.368042
	C790.181274,847.841614 788.809509,849.090698 785.372131,849.062744
	C782.143860,849.036560 780.927612,847.832275 780.963623,844.620361
	C781.075500,834.660583 781.004578,824.698730 781.004578,814.829895
	C781.851318,814.445923 782.271423,814.120117 782.721191,814.072266
	C787.685486,813.543884 792.692078,815.176392 797.723450,813.200806
	C799.536011,812.489197 802.895630,813.040283 804.245667,814.354309
	C807.640503,817.658630 810.075928,817.081421 813.877075,814.823120
	C823.170349,809.301514 833.395325,815.687988 833.945862,826.981079
	C834.115967,830.469788 833.982910,833.973267 833.989380,837.958252
z"/>
<path fill="#0C4097" opacity="1.000000" stroke="none"
	d="
M372.073853,813.578125
	C374.395172,814.546875 376.371429,815.297241 378.971710,816.284546
	C378.971710,810.632263 378.971710,805.120483 378.971710,799.342163
	C381.846222,799.342163 384.079132,799.342163 386.962219,799.342163
	C386.962219,805.018616 386.958405,810.459351 386.963074,815.900085
	C386.971313,825.552429 387.108368,835.207947 386.858490,844.853577
	C386.822296,846.251770 385.176697,848.410156 383.861969,848.792114
	C381.693420,849.422058 378.553925,849.948486 378.743073,845.767090
	C368.089905,850.730408 361.681305,850.234375 355.560699,844.030823
	C349.636841,838.026611 348.398529,830.266785 352.146851,822.637268
	C355.580170,815.648865 362.526947,812.357605 372.073853,813.578125
M359.068359,834.857117
	C361.738708,840.338928 366.793213,842.559998 372.481262,840.751099
	C376.724548,839.401611 379.806335,834.065369 378.843567,829.734558
	C377.486511,823.630188 373.114502,820.363281 367.140717,820.989868
	C361.612152,821.569824 358.948425,825.831909 359.068359,834.857117
z"/>
<path fill="#0C4097" opacity="1.000000" stroke="none"
	d="
M509.989716,801.694336
	C516.394348,817.242981 522.506775,832.501221 528.617737,847.755981
	C522.199707,850.372070 519.961121,849.793335 518.062927,843.717651
	C516.520020,838.779114 513.825317,837.170166 509.036774,837.954163
	C507.739288,838.166626 506.355225,838.132751 505.047180,837.950806
	C498.533905,837.044617 494.143433,838.628235 492.269470,845.934875
	C490.919891,851.196960 486.263550,848.629761 482.035919,848.533813
	C486.547424,837.551697 490.764709,827.248535 495.016205,816.959473
	C496.275513,813.911865 497.742279,810.946594 498.920746,807.869568
	C501.793060,800.369690 501.747498,800.352234 509.989716,801.694336
M506.464539,830.005066
	C508.203247,830.005066 509.941986,830.005066 512.658997,830.005066
	C510.234222,823.811462 508.191833,818.594666 505.857361,812.631714
	C504.375458,816.202332 503.192017,818.849609 502.176178,821.559692
	C501.187012,824.198608 500.369354,826.901917 499.333466,830.005005
	C501.960297,830.005005 503.772278,830.005005 506.464539,830.005066
z"/>
<path fill="#0D4096" opacity="1.000000" stroke="none"
	d="
M222.616867,820.725220
	C228.515457,812.277161 237.135010,810.802490 247.128265,815.003845
	C249.823166,814.583374 252.518066,814.162964 256.089661,813.605713
	C256.089661,825.802979 256.089661,837.089478 256.089661,848.843262
	C252.584518,848.296936 248.804459,851.359985 247.622314,845.984375
	C238.719650,851.207397 230.748978,850.354980 224.192429,843.703979
	C219.151642,838.590454 217.056137,828.363770 222.616867,820.725220
M240.869141,840.911987
	C242.028702,840.299988 243.337601,839.866394 244.320755,839.043640
	C247.694031,836.220520 248.892105,832.417419 247.565430,828.352844
	C246.318481,824.532654 244.231522,821.036743 239.341003,820.961304
	C234.678482,820.889404 231.012024,822.373901 228.972260,826.957886
	C225.467957,834.832825 230.326248,841.034119 240.869141,840.911987
z"/>
<path fill="#0C3F95" opacity="1.000000" stroke="none"
	d="
M613.507568,815.250427
	C621.430054,811.973206 624.877319,812.189331 631.985718,815.050354
	C634.708923,814.604736 637.432129,814.159180 640.638916,813.634460
	C640.638916,825.630066 640.638916,836.877563 640.638916,849.141052
	C637.673584,848.760132 634.879089,848.401184 632.084534,848.042175
	C617.733093,852.723877 610.639709,846.856995 606.733826,840.372803
	C602.093384,832.669250 603.941528,820.686584 613.507568,815.250427
M617.918823,839.969055
	C619.841125,840.317993 621.758118,840.926147 623.686829,840.966370
	C629.048950,841.078064 632.924927,837.091614 632.982117,831.673279
	C633.048218,825.411133 629.202637,820.482544 623.758240,821.189453
	C620.575317,821.602783 616.710022,823.445862 614.848083,825.921570
	C611.253113,830.701416 613.075073,835.604248 617.918823,839.969055
z"/>
<path fill="#0C4198" opacity="1.000000" stroke="none"
	d="
M340.090759,821.246155
	C340.797211,829.661926 341.461304,837.699524 341.906006,845.749268
	C342.100830,849.276672 339.327148,848.908203 336.981384,849.004761
	C334.301239,849.115051 332.965332,848.057800 333.001770,845.235291
	C333.072632,839.744690 333.053131,834.251770 332.982330,828.760925
	C332.913605,823.431152 330.760956,821.050354 326.119659,820.977356
	C321.564941,820.905701 318.193207,823.877747 318.024536,828.549194
	C317.832489,833.867371 317.837769,839.203308 318.035034,844.521179
	C318.168945,848.130310 316.530365,849.072693 313.228760,849.073242
	C309.891144,849.073853 308.917908,847.632019 308.952087,844.522217
	C309.061340,834.574768 308.992645,824.625488 308.992645,813.724976
	C312.396179,814.186279 315.183716,814.732239 317.991852,814.875732
	C319.461365,814.950867 321.009583,814.450745 322.449280,813.984863
	C330.024689,811.533325 336.029266,813.867004 340.090759,821.246155
z"/>
<path fill="#0C3F96" opacity="1.000000" stroke="none"
	d="
M564.892700,848.994141
	C563.143372,848.908081 561.850098,848.813416 559.998413,848.677917
	C559.998413,842.529785 560.356384,836.562866 559.844482,830.671570
	C559.595886,827.810059 558.392883,824.316284 556.365845,822.551880
	C554.759338,821.153503 550.443115,820.842773 548.762756,822.047546
	C546.461914,823.696960 544.521484,827.126892 544.198975,829.993164
	C543.519470,836.032349 543.992432,842.201172 543.992432,848.634827
	C541.199219,848.634827 538.963684,848.634827 536.352600,848.634827
	C536.352600,837.305908 536.352600,826.081787 536.352600,813.852173
	C539.262695,814.206055 542.068237,814.547302 546.302063,815.062195
	C550.189819,812.001770 555.863708,811.934631 561.734558,815.369080
	C566.725891,818.289062 568.280334,822.733521 568.030701,828.302856
	C567.777649,833.946777 568.131775,839.618652 567.854858,845.260376
	C567.792114,846.540039 566.223999,847.745789 564.892700,848.994141
z"/>
<path fill="#0C3F95" opacity="1.000000" stroke="none"
	d="
M274.986359,825.962646
	C274.992065,828.778198 274.867188,831.117493 275.029449,833.436707
	C275.422211,839.052368 278.050964,841.249939 283.839355,840.992859
	C288.003845,840.807861 289.933502,838.417053 289.981079,833.164551
	C290.036621,827.033325 289.994049,820.901184 289.994049,814.385071
	C292.975647,814.385071 295.539673,814.385071 299.295349,814.385071
	C298.902405,822.528320 299.369019,830.862427 297.875061,838.828857
	C296.335449,847.038635 288.214905,850.620789 278.484497,848.947693
	C271.660767,847.774414 266.497345,840.408325 266.856873,832.928833
	C267.005249,829.842468 266.060974,826.713196 266.097565,823.609131
	C266.132233,820.665649 266.799530,817.729675 267.238953,814.410278
	C269.543732,814.410278 271.779480,814.410278 274.986359,814.410278
	C274.986359,818.010681 274.986359,821.743958 274.986359,825.962646
z"/>
<path fill="#0B3E95" opacity="1.000000" stroke="none"
	d="
M909.495056,848.967896
	C906.089539,848.840454 902.954468,849.262085 900.175476,848.456177
	C893.705566,846.579651 890.053894,841.151123 889.999817,834.263245
	C889.948975,827.788025 889.988953,821.312134 889.988953,814.431091
	C892.589050,814.431091 894.820251,814.431091 897.990723,814.431091
	C897.990723,820.373474 897.919067,826.457642 898.011536,832.539307
	C898.097839,838.213440 901.200195,841.134949 906.592773,841.027039
	C910.897461,840.940857 913.003418,838.841003 912.998230,834.555420
	C912.990173,827.930237 912.996094,821.305115 912.996094,814.331787
	C916.080322,814.331787 918.646545,814.331787 921.835449,814.331787
	C921.835449,822.309998 922.637024,830.345520 921.571594,838.125427
	C920.776306,843.933105 916.015686,847.697021 909.495056,848.967896
z"/>
<path fill="#0D4298" opacity="1.000000" stroke="none"
	d="
M202.996445,841.008911
	C206.779312,841.009094 210.070587,841.009094 213.652206,841.009094
	C213.652206,843.819519 213.652206,846.053650 213.652206,848.917725
	C204.191620,848.917725 194.917725,849.015381 185.653320,848.763733
	C184.745193,848.739075 183.148071,846.576599 183.132751,845.390076
	C182.956589,831.735413 182.772354,818.070740 183.141647,804.423706
	C183.308167,798.270081 188.486282,802.354797 191.765930,800.294922
	C191.765930,814.285034 191.765930,827.205994 191.765930,841.008789
	C195.685852,841.008789 199.095352,841.008789 202.996445,841.008911
z"/>
<path fill="#0B3E95" opacity="1.000000" stroke="none"
	d="
M706.041748,837.804688
	C708.938782,839.027710 712.592834,841.337646 714.350281,840.332336
	C716.674011,839.002991 718.583923,835.152222 718.785950,832.253723
	C719.363831,823.962769 718.989258,815.605408 718.989197,807.274170
	C718.989197,805.458374 718.989197,803.642578 718.989197,801.407593
	C721.981567,801.407593 724.664856,801.407593 727.884094,801.407593
	C727.884094,813.011047 728.356628,824.484131 727.708069,835.893555
	C727.314575,842.816467 721.053772,848.511841 715.411804,848.962158
	C705.567566,849.747742 701.039246,847.097595 697.344360,838.125305
	C700.196350,837.211731 702.686462,834.192627 706.041748,837.804688
z"/>
<path fill="#0D4096" opacity="1.000000" stroke="none"
	d="
M472.233826,655.785522
	C467.857056,656.078735 464.088989,656.249756 460.572571,653.361389
	C456.350555,649.893433 454.059723,645.330200 455.263397,640.533264
	C456.779846,634.489868 460.954956,630.532227 466.349731,630.024597
	C472.747742,629.422424 477.293823,631.946167 479.983429,636.801147
	C483.988007,644.029724 480.401855,653.119812 472.233826,655.785522
z"/>
<path fill="#0C4097" opacity="1.000000" stroke="none"
	d="
M577.156921,814.051636
	C578.728333,813.046692 580.701416,812.193359 580.863892,811.076660
	C581.860168,804.228088 581.723694,804.208252 589.683411,803.919250
	C589.850952,806.977661 590.019470,810.054871 590.218628,813.691895
	C592.974915,813.879639 595.689697,814.064575 598.683044,814.268494
	C598.683044,816.470642 598.683044,818.370544 598.683044,820.655334
	C595.948730,820.852600 593.361938,821.039185 590.063293,821.277161
	C590.063293,826.757874 589.822083,832.187256 590.244080,837.564575
	C590.341675,838.807922 592.616821,840.692383 594.047974,840.850342
	C597.039124,841.180359 599.173645,841.398376 599.063416,845.250732
	C598.944031,849.421936 596.172058,848.963013 593.510986,848.979553
	C585.919067,849.026794 581.278992,844.561768 581.057678,836.775635
	C580.916687,831.814453 581.031372,826.846069 581.031372,821.613586
	C579.022522,821.221863 577.314331,820.888794 574.428345,820.325989
	C575.245544,818.100830 575.983582,816.091187 577.156921,814.051636
z"/>
<path fill="#0D4096" opacity="1.000000" stroke="none"
	d="
M934.999878,825.254517
	C934.453369,821.390686 934.453369,821.390686 929.298889,820.346619
	C929.298889,818.493469 929.298889,816.581909 929.298889,814.376709
	C931.061035,814.153259 932.661682,813.950256 934.764099,813.683655
	C934.895020,811.074646 935.025391,808.477051 935.178772,805.419556
	C937.758057,804.737549 940.346680,804.053040 943.651245,803.179260
	C943.873901,806.943054 944.063721,810.151489 944.271912,813.670715
	C947.086914,813.871887 949.683228,814.057434 952.210571,814.238037
	C953.556580,820.043579 953.556580,820.043579 944.054993,821.608337
	C944.054993,826.776489 943.771973,832.079285 944.249573,837.312744
	C944.372498,838.659790 946.835693,840.743286 948.317566,840.826965
	C951.859741,841.026978 953.042358,842.629089 952.976440,845.783386
	C952.902222,849.332520 950.278503,848.932373 947.953003,848.975342
	C939.689514,849.128174 935.038086,844.555786 934.995972,836.213989
	C934.978333,832.716309 934.997742,829.218567 934.999878,825.254517
z"/>
<path fill="#093C92" opacity="1.000000" stroke="none"
	d="
M771.742554,824.599121
	C772.305725,827.418945 772.868835,830.238708 773.626282,834.031921
	C764.112488,834.031921 755.557983,834.031921 746.468811,833.750732
	C747.778870,832.979187 749.611389,832.434631 751.471924,832.014587
	C753.144531,831.636963 754.848083,831.395996 756.537964,831.094727
	C752.150146,829.093689 747.924133,828.279175 743.674927,827.611877
	C742.453552,827.420105 740.130615,827.436462 740.070129,827.725281
	C739.545471,830.231445 739.174683,832.835083 739.313538,835.379333
	C739.361511,836.259460 740.857056,837.365662 741.917297,837.757507
	C742.450623,837.954590 743.559631,836.860657 744.279846,836.208618
	C744.972046,835.582092 745.498535,834.772461 746.097839,834.043274
	C748.359131,841.685730 755.329590,844.728271 761.210388,839.614014
	C765.539551,835.849182 767.676208,838.445618 770.720886,840.275635
	C767.313110,847.446289 760.987000,850.189575 751.050598,848.953003
	C745.180603,848.222412 738.341370,841.788940 737.066345,835.798279
	C735.263123,827.326111 738.591248,819.935486 746.668213,815.440674
	C746.983704,819.217834 748.576172,820.013306 752.005615,819.386719
	C753.859131,819.048035 756.001160,820.287720 757.588745,820.879150
	C752.723633,821.014771 748.044128,820.664368 746.647034,826.969910
	C752.280579,826.969910 757.588989,826.969910 763.070923,827.187988
	C763.459839,829.000671 761.244263,831.481873 764.808472,831.856750
	C767.388977,832.128113 769.860168,832.319458 770.080994,828.521057
	C770.158630,827.186035 771.161926,825.904846 771.742554,824.599121
z"/>
<path fill="#0C4097" opacity="1.000000" stroke="none"
	d="
M670.832764,813.060669
	C672.107239,814.721252 673.608215,816.371887 673.594482,818.010010
	C673.586243,819.006897 671.198975,820.878235 669.954346,820.818481
	C664.073303,820.535828 660.402710,825.308289 660.897156,830.745728
	C661.317200,835.364990 660.884949,840.055359 661.043823,844.706970
	C661.156128,847.997314 659.711914,849.072144 656.564514,849.059143
	C653.520081,849.046509 651.933167,848.219177 651.974426,844.825073
	C652.097229,834.727112 652.018433,824.626648 652.018433,814.792175
	C658.576660,814.169678 664.498657,813.607605 670.832764,813.060669
z"/>
<path fill="#0B3E95" opacity="1.000000" stroke="none"
	d="
M414.198975,813.046692
	C420.180176,813.735168 420.180176,813.735168 418.360931,820.826721
	C408.224091,821.469727 406.016754,823.860352 406.005157,834.221191
	C405.999939,838.860657 406.004303,843.500122 406.004303,848.553345
	C403.369019,848.553345 401.137543,848.553345 398.444550,848.553345
	C398.444550,837.349670 398.444550,826.004517 398.444550,814.383911
	C403.500183,813.003235 408.989624,816.296997 414.198975,813.046692
z"/>
<path fill="#1B4481" opacity="1.000000" stroke="none"
	d="
M807.101929,364.491455
	C794.845825,369.836975 782.146118,373.969330 770.311218,379.843872
	C752.820190,388.526062 740.153992,402.913300 728.668823,418.701508
	C730.464600,414.936371 731.975708,410.616669 734.664673,407.232941
	C749.885132,388.080109 768.904114,374.334442 792.375061,366.674042
	C797.457031,365.015411 801.721619,360.852325 806.626953,357.891632
	C806.942566,359.979492 806.993835,362.018494 807.101929,364.491455
z"/>
<path fill="#0F469F" opacity="1.000000" stroke="none"
	d="
M771.741577,824.299500
	C771.161926,825.904846 770.158630,827.186035 770.080994,828.521057
	C769.860168,832.319458 767.388977,832.128113 764.808472,831.856750
	C761.244263,831.481873 763.459839,829.000671 763.095581,826.832520
	C761.302063,824.444458 759.657532,822.629883 758.012939,820.815308
	C756.001160,820.287720 753.859131,819.048035 752.005615,819.386719
	C748.576172,820.013306 746.983704,819.217834 746.976685,815.291626
	C756.514893,811.598450 764.064880,813.310852 768.604126,820.223267
	C769.488464,821.125122 770.145386,821.556519 770.802307,821.987976
	C770.840454,822.192932 770.878540,822.397888 770.713623,822.910461
	C770.638794,823.249512 770.767029,823.281006 770.895264,823.312500
	C771.177063,823.541626 771.458801,823.770752 771.741577,824.299500
z"/>
<path fill="#093C92" opacity="1.000000" stroke="none"
	d="
M758.993164,729.698242
	C758.754700,728.910278 758.474731,727.772827 758.669617,726.723572
	C759.714478,721.096069 761.583008,715.523682 761.849365,709.870239
	C762.363525,698.952942 761.958740,687.993835 762.027405,677.052673
	C762.040710,674.929077 762.475342,672.808105 762.885681,670.296997
	C763.698669,672.028198 764.864563,674.140198 764.897644,676.269714
	C765.080200,688.008972 765.170471,699.756531 764.913757,711.492981
	C764.773193,717.918213 763.546814,724.216736 758.993164,729.698242
z"/>
<path fill="#F3D15E" opacity="1.000000" stroke="none"
	d="
M868.574829,447.891052
	C868.906433,447.578400 869.692200,447.112518 870.475708,447.116241
	C889.704407,447.208008 908.932739,447.349609 928.521667,447.649048
	C908.930725,447.862732 888.979370,447.909698 868.574829,447.891052
z"/>
<path fill="#4875B0" opacity="1.000000" stroke="none"
	d="
M925.511230,449.608154
	C908.037720,450.059753 890.300171,450.210632 872.222412,450.618042
	C871.398682,450.468506 870.915222,450.062408 870.431702,449.656311
	C871.340515,449.430450 872.250183,449.004578 873.158081,449.008209
	C890.521240,449.077789 907.884216,449.197876 925.511230,449.608154
z"/>
<path fill="#ECEDEA" opacity="1.000000" stroke="none"
	d="
M544.303284,510.941467
	C544.492554,503.466095 544.922363,495.983032 545.349731,488.497192
	C545.325195,488.206238 545.303162,487.918091 545.281128,487.629944
	C545.241943,487.779449 545.165039,487.929962 545.168945,488.078339
	C545.367798,495.621246 545.573486,503.163940 545.795654,511.150848
	C545.389893,511.374634 544.966919,511.154236 544.303284,510.941467
z"/>
<path fill="#093C92" opacity="1.000000" stroke="none"
	d="
M770.814087,821.745605
	C770.145386,821.556519 769.488464,821.125122 768.887573,820.427002
	C769.570984,820.607910 770.198486,821.055542 770.814087,821.745605
z"/>
<path fill="#093C92" opacity="1.000000" stroke="none"
	d="
M770.879395,823.293457
	C770.767029,823.281006 770.638794,823.249512 770.696533,823.222778
	C770.882507,823.227478 770.863586,823.274414 770.879395,823.293457
z"/>
<path fill="#FCFDFE" opacity="1.000000" stroke="none"
	d="
M361.182617,96.839188
	C408.931488,113.036652 438.198151,155.673843 434.709717,203.504883
	C430.195709,265.397797 373.284698,309.880219 312.078583,299.355133
	C267.102905,291.621063 233.000580,258.782135 225.016083,215.517990
	C214.943878,160.941620 249.225632,108.164726 303.174011,95.035461
	C322.570923,90.314888 341.755707,90.555779 361.182617,96.839188
M321.457764,153.086166
	C322.352783,152.643799 323.273712,152.246796 324.138885,151.752228
	C336.656342,144.597183 337.262512,130.743973 324.820343,123.465248
	C319.847015,120.555847 313.647308,118.619133 307.905365,118.345154
	C285.050598,117.254578 267.375458,127.572166 254.202866,145.608459
	C225.252472,185.248245 236.448212,243.563416 278.114288,271.668915
	C329.499573,306.330383 399.924011,281.307190 417.743927,222.024933
	C418.541565,219.371384 418.911377,216.589249 419.480438,213.867020
	C417.454773,214.946091 416.545837,216.295410 415.715820,217.691620
	C408.683411,229.521042 399.535065,239.490295 387.544769,246.167664
	C358.238007,262.488495 328.234009,265.749817 298.460999,247.649170
	C281.463959,237.315704 273.047882,221.388718 274.275055,201.391129
	C275.544800,180.699936 287.091797,166.948578 305.778961,158.901825
	C310.659943,156.800064 315.756195,155.198303 321.457764,153.086166
M370.103180,246.697327
	C394.080078,237.071335 409.301910,219.348389 417.665802,195.278748
	C419.754395,189.268219 418.391632,187.772415 412.170990,188.357376
	C392.555603,190.201920 374.898376,197.717331 357.641113,206.590714
	C341.226868,215.030655 324.739410,223.330322 308.210907,231.544235
	C304.878601,233.200241 301.217590,234.194885 296.151520,236.070877
	C301.145691,239.333603 304.729797,242.264206 308.783356,244.223480
	C328.537445,253.771561 348.807007,254.187088 370.103180,246.697327
M368.773071,149.010941
	C378.316803,148.932205 384.907715,142.786606 384.491119,134.354843
	C384.046295,125.350304 376.927094,119.062721 368.288422,120.044807
	C361.634186,120.801308 356.383301,126.204681 355.818756,132.876633
	C355.105072,141.310974 358.943573,146.392258 368.773071,149.010941
M293.072632,199.377411
	C296.022461,202.547119 299.819733,203.668762 303.333740,201.358658
	C305.484314,199.944870 307.869232,196.607361 307.626831,194.412308
	C307.325684,191.685059 304.917053,187.994263 302.499420,187.034103
	C300.090851,186.077515 295.943512,187.159103 293.641144,188.834641
	C290.355560,191.225693 290.710754,195.195587 293.072632,199.377411
M316.356079,199.865494
	C314.272186,202.764557 314.273132,205.895950 317.501221,207.356232
	C319.358551,208.196426 322.672943,207.592010 324.386475,206.342239
	C325.507416,205.524658 325.797424,201.901321 324.945099,200.387375
	C323.098633,197.107544 319.948395,197.153946 316.356079,199.865494
M339.849365,168.566299
	C339.340576,167.928116 338.859741,166.771347 338.318176,166.742172
	C336.059845,166.620499 333.234741,166.070816 331.688507,167.176224
	C330.473206,168.045059 329.917572,171.635757 330.736145,173.057312
	C331.598083,174.554092 334.556458,175.804962 336.391602,175.566803
	C339.571106,175.154144 340.868195,172.546463 339.849365,168.566299
z"/>
<path fill="#ECEDEA" opacity="1.000000" stroke="none"
	d="
M448.120300,60.082268
	C452.972015,58.981861 457.253784,60.044868 459.254852,64.041367
	C460.618958,66.765625 460.835327,70.848450 459.873993,73.766861
	C458.481659,77.993645 454.482666,80.081276 449.896484,79.365189
	C445.450958,78.671066 442.250610,76.007622 441.493958,71.369072
	C440.636810,66.114464 443.019745,62.423813 448.120300,60.082268
M449.070465,63.347145
	C445.768524,65.078644 443.517548,67.809853 445.124939,71.391373
	C446.019653,73.384987 448.685394,75.433304 450.845154,75.818375
	C454.437531,76.458847 457.338409,74.451500 457.912384,70.459610
	C458.490326,66.439911 455.361542,63.704170 449.070465,63.347145
z"/>
<path fill="#ECEDEA" opacity="1.000000" stroke="none"
	d="
M416.707153,78.819733
	C410.158875,80.329552 404.893494,77.542923 403.423798,72.110710
	C402.062408,67.078667 405.348663,61.569923 410.566589,60.137222
	C415.753510,58.713043 421.053467,61.617737 422.814026,66.849579
	C424.317078,71.316231 422.376953,75.300148 416.707153,78.819733
M414.893829,63.524765
	C412.278748,64.774918 409.159851,65.534698 407.262726,67.483688
	C406.324829,68.447220 406.885193,72.397621 408.121063,73.570374
	C409.748138,75.114426 412.901703,76.173256 415.034851,75.721497
	C416.894775,75.327606 419.629517,72.443817 419.507111,70.849915
	C419.319794,68.411354 417.008057,66.135979 414.893829,63.524765
z"/>
<path fill="#0F469F" opacity="1.000000" stroke="none"
	d="
M746.052734,834.031189
	C745.498535,834.772461 744.972046,835.582092 744.279846,836.208618
	C743.559631,836.860657 742.450623,837.954590 741.917297,837.757507
	C740.857056,837.365662 739.361511,836.259460 739.313538,835.379333
	C739.174683,832.835083 739.545471,830.231445 740.070129,827.725281
	C740.130615,827.436462 742.453552,827.420105 743.674927,827.611877
	C747.924133,828.279175 752.150146,829.093689 756.537964,831.094727
	C754.848083,831.395996 753.144531,831.636963 751.471924,832.014587
	C749.611389,832.434631 747.778870,832.979187 746.005493,833.774536
	C746.076721,834.079407 746.007568,834.019104 746.052734,834.031189
z"/>
<path fill="#17C1DD" opacity="1.000000" stroke="none"
	d="
M321.105682,153.226532
	C315.756195,155.198303 310.659943,156.800064 305.778961,158.901825
	C287.091797,166.948578 275.544800,180.699936 274.275055,201.391129
	C273.047882,221.388718 281.463959,237.315704 298.460999,247.649170
	C328.234009,265.749817 358.238007,262.488495 387.544769,246.167664
	C399.535065,239.490295 408.683411,229.521042 415.715820,217.691620
	C416.545837,216.295410 417.454773,214.946091 419.480438,213.867020
	C418.911377,216.589249 418.541565,219.371384 417.743927,222.024933
	C399.924011,281.307190 329.499573,306.330383 278.114288,271.668915
	C236.448212,243.563416 225.252472,185.248245 254.202866,145.608459
	C267.375458,127.572166 285.050598,117.254578 307.905365,118.345154
	C313.647308,118.619133 319.847015,120.555847 324.820343,123.465248
	C337.262512,130.743973 336.656342,144.597183 324.138885,151.752228
	C323.273712,152.246796 322.352783,152.643799 321.105682,153.226532
M339.964355,280.161407
	C342.093262,274.299896 339.721985,268.837433 334.605530,269.134705
	C332.017670,269.285034 328.719543,271.323212 327.273102,273.516998
	C325.365540,276.410065 326.322693,280.000061 329.449738,282.260284
	C333.202057,284.972473 336.576080,284.115051 339.964355,280.161407
M271.566284,258.212524
	C275.564606,257.699738 277.782074,255.522186 276.425781,251.531479
	C275.935059,250.087524 273.457031,248.289169 272.080597,248.439209
	C270.396729,248.622772 267.576538,250.758575 267.641357,251.916275
	C267.759979,254.035522 269.635132,256.056458 271.566284,258.212524
M311.888153,268.551239
	C314.697479,270.091583 317.450684,270.214264 319.033813,267.091644
	C319.581451,266.011475 319.012207,263.156433 318.269928,262.867523
	C316.379608,262.131866 313.789642,261.666138 312.058929,262.420776
	C309.701294,263.448761 309.122375,265.853241 311.888153,268.551239
M354.324554,273.697571
	C352.410156,275.634521 351.687347,277.970276 354.217743,279.546661
	C355.556549,280.380707 358.171844,280.351868 359.538177,279.556702
	C360.519592,278.985565 361.126343,275.420685 360.614349,275.070282
	C359.024200,273.982056 356.820770,273.790039 354.324554,273.697571
z"/>
<path fill="#19C2DD" opacity="1.000000" stroke="none"
	d="
M369.737549,246.830627
	C348.807007,254.187088 328.537445,253.771561 308.783356,244.223480
	C304.729797,242.264206 301.145691,239.333603 296.151520,236.070877
	C301.217590,234.194885 304.878601,233.200241 308.210907,231.544235
	C324.739410,223.330322 341.226868,215.030655 357.641113,206.590714
	C374.898376,197.717331 392.555603,190.201920 412.170990,188.357376
	C418.391632,187.772415 419.754395,189.268219 417.665802,195.278748
	C409.301910,219.348389 394.080078,237.071335 369.737549,246.830627
M371.172943,207.859451
	C367.652466,213.454239 368.048676,219.368744 372.204926,223.264694
	C376.202454,227.011826 382.416260,227.222198 386.858856,223.760788
	C391.286499,220.311035 392.463226,214.553833 389.796417,209.388611
	C386.232361,202.485535 378.996582,201.647858 371.172943,207.859451
M356.502838,231.788452
	C356.285278,233.572708 355.290924,235.910553 356.060883,236.991074
	C356.889435,238.153717 359.731079,238.966507 361.033417,238.403381
	C362.350525,237.833878 363.837677,235.165497 363.524872,233.816650
	C362.783203,230.618332 360.075287,230.177963 356.502838,231.788452
z"/>
<path fill="#19C2DD" opacity="1.000000" stroke="none"
	d="
M368.358490,148.969345
	C358.943573,146.392258 355.105072,141.310974 355.818756,132.876633
	C356.383301,126.204681 361.634186,120.801308 368.288422,120.044807
	C376.927094,119.062721 384.046295,125.350304 384.491119,134.354843
	C384.907715,142.786606 378.316803,148.932205 368.358490,148.969345
z"/>
<path fill="#19C2DD" opacity="1.000000" stroke="none"
	d="
M292.859070,199.066223
	C290.710754,195.195587 290.355560,191.225693 293.641144,188.834641
	C295.943512,187.159103 300.090851,186.077515 302.499420,187.034103
	C304.917053,187.994263 307.325684,191.685059 307.626831,194.412308
	C307.869232,196.607361 305.484314,199.944870 303.333740,201.358658
	C299.819733,203.668762 296.022461,202.547119 292.859070,199.066223
z"/>
<path fill="#19C2DD" opacity="1.000000" stroke="none"
	d="
M316.636963,199.587692
	C319.948395,197.153946 323.098633,197.107544 324.945099,200.387375
	C325.797424,201.901321 325.507416,205.524658 324.386475,206.342239
	C322.672943,207.592010 319.358551,208.196426 317.501221,207.356232
	C314.273132,205.895950 314.272186,202.764557 316.636963,199.587692
z"/>
<path fill="#19C2DD" opacity="1.000000" stroke="none"
	d="
M339.958374,168.904861
	C340.868195,172.546463 339.571106,175.154144 336.391602,175.566803
	C334.556458,175.804962 331.598083,174.554092 330.736145,173.057312
	C329.917572,171.635757 330.473206,168.045059 331.688507,167.176224
	C333.234741,166.070816 336.059845,166.620499 338.318176,166.742172
	C338.859741,166.771347 339.340576,167.928116 339.958374,168.904861
z"/>
<path fill="#FABE15" opacity="1.000000" stroke="none"
	d="
M449.445831,63.232742
	C455.361542,63.704170 458.490326,66.439911 457.912384,70.459610
	C457.338409,74.451500 454.437531,76.458847 450.845154,75.818375
	C448.685394,75.433304 446.019653,73.384987 445.124939,71.391373
	C443.517548,67.809853 445.768524,65.078644 449.445831,63.232742
z"/>
<path fill="#FABE15" opacity="1.000000" stroke="none"
	d="
M415.245972,63.658051
	C417.008057,66.135979 419.319794,68.411354 419.507111,70.849915
	C419.629517,72.443817 416.894775,75.327606 415.034851,75.721497
	C412.901703,76.173256 409.748138,75.114426 408.121063,73.570374
	C406.885193,72.397621 406.324829,68.447220 407.262726,67.483688
	C409.159851,65.534698 412.278748,64.774918 415.245972,63.658051
z"/>
<path fill="#FCFDFE" opacity="1.000000" stroke="none"
	d="
M339.749207,280.487732
	C336.576080,284.115051 333.202057,284.972473 329.449738,282.260284
	C326.322693,280.000061 325.365540,276.410065 327.273102,273.516998
	C328.719543,271.323212 332.017670,269.285034 334.605530,269.134705
	C339.721985,268.837433 342.093262,274.299896 339.749207,280.487732
z"/>
<path fill="#EEFAFC" opacity="1.000000" stroke="none"
	d="
M271.172058,258.165466
	C269.635132,256.056458 267.759979,254.035522 267.641357,251.916275
	C267.576538,250.758575 270.396729,248.622772 272.080597,248.439209
	C273.457031,248.289169 275.935059,250.087524 276.425781,251.531479
	C277.782074,255.522186 275.564606,257.699738 271.172058,258.165466
z"/>
<path fill="#EEFAFC" opacity="1.000000" stroke="none"
	d="
M311.599518,268.312683
	C309.122375,265.853241 309.701294,263.448761 312.058929,262.420776
	C313.789642,261.666138 316.379608,262.131866 318.269928,262.867523
	C319.012207,263.156433 319.581451,266.011475 319.033813,267.091644
	C317.450684,270.214264 314.697479,270.091583 311.599518,268.312683
z"/>
<path fill="#EEFAFC" opacity="1.000000" stroke="none"
	d="
M354.589905,273.473938
	C356.820770,273.790039 359.024200,273.982056 360.614349,275.070282
	C361.126343,275.420685 360.519592,278.985565 359.538177,279.556702
	C358.171844,280.351868 355.556549,280.380707 354.217743,279.546661
	C351.687347,277.970276 352.410156,275.634521 354.589905,273.473938
z"/>
<path fill="#FCFDFE" opacity="1.000000" stroke="none"
	d="
M371.430420,207.575836
	C378.996582,201.647858 386.232361,202.485535 389.796417,209.388611
	C392.463226,214.553833 391.286499,220.311035 386.858856,223.760788
	C382.416260,227.222198 376.202454,227.011826 372.204926,223.264694
	C368.048676,219.368744 367.652466,213.454239 371.430420,207.575836
z"/>
<path fill="#EEFAFC" opacity="1.000000" stroke="none"
	d="
M356.828857,231.549957
	C360.075287,230.177963 362.783203,230.618332 363.524872,233.816650
	C363.837677,235.165497 362.350525,237.833878 361.033417,238.403381
	C359.731079,238.966507 356.889435,238.153717 356.060883,236.991074
	C355.290924,235.910553 356.285278,233.572708 356.828857,231.549957
z"/>
</svg>